<?xml version="1.0" encoding="UTF-8"?>
<!DOCTYPE svg PUBLIC "-//W3C//DTD SVG 1.1//EN" "http://www.w3.org/Graphics/SVG/1.1/DTD/svg11.dtd">
<!-- Creator: CorelDRAW X7 -->
<svg xmlns="http://www.w3.org/2000/svg" xml:space="preserve" width="210mm" height="297mm" version="1.1" style="shape-rendering:geometricPrecision; text-rendering:geometricPrecision; image-rendering:optimizeQuality; fill-rule:evenodd; clip-rule:evenodd"
viewBox="0 0 21000 29700"
 xmlns:xlink="http://www.w3.org/1999/xlink">
 <defs>
  <style type="text/css">
   <![CDATA[
    .str1 {stroke:#332C2B;stroke-width:20}
    .str0 {stroke:#8B8B8C;stroke-width:7.62}
    .fil1 {fill:#FEFEFE}
    .fil9 {fill:#757475}
    .fil4 {fill:#5F5D5D}
    .fil3 {fill:#332C2B}
    .fil8 {fill:#332C2B}
    .fil0 {fill:#FBD7A3}
    .fil7 {fill:#F8CB8B}
    .fil6 {fill:#F6C786}
    .fil2 {fill:#F5CA8D}
    .fil10 {fill:#50585D}
    .fil5 {fill:#5BA997}
   ]]>
  </style>
 </defs>
 <g id="Layer_x0020_1">
  <metadata id="CorelCorpID_0Corel-Layer"/>
  <polygon class="fil0" points="10406,10569 11894,10573 11894,11349 13488,12025 8851,12057 10406,11363 "/>
  <path class="fil0" d="M8905 7614c-529,-503 -638,-111 -634,380 3,311 57,297 242,478 141,137 175,454 337,516 202,78 393,-281 393,-627 0,-190 -17,-244 -66,-334 -41,-76 -82,-233 -272,-413z"/>
  <path class="fil0" d="M13373 7454c529,-503 638,-111 634,381 -2,310 -57,297 -242,477 -141,137 -175,454 -336,516 -203,79 -393,-281 -393,-627 0,-189 16,-244 65,-334 41,-76 82,-233 272,-413z"/>
  <path class="fil0" d="M11143 5785c1212,0 2157,181 2157,1829 0,1649 -983,3255 -2196,3255 -1212,0 -2195,-1606 -2195,-3255 0,-1648 1021,-1829 2234,-1829z"/>
  <ellipse class="fil1" cx="9967" cy="7626" rx="373" ry="595"/>
  <ellipse class="fil1" cx="12279" cy="7633" rx="373" ry="595"/>
  <path class="fil1" d="M11608 9954l-1 1c-2,6 -5,12 -7,18l-1 3 -4 9 -2 3c-2,5 -5,11 -7,16l-1 3 -4 8 -2 4 -4 8 -1 2c-3,5 -6,11 -9,16l-1 3 -5 8 -2 3c-5,8 -10,16 -15,24l-2 4 -5 7 -2 3c-3,4 -5,8 -8,12l-3 4 -5 6 -3 5 -4 6 0 0c-3,3 -5,5 -7,8l0 0 -5 6 -3 5 -5 5 -3 4c-3,3 -6,6 -8,9l-5 5 -4 5 -4 4 -6 6c-2,2 -4,5 -7,7l-4 4 -5 5 -5 4c-2,2 -4,5 -7,7l-4 3c-2,2 -5,5 -7,7l-4 3 -6 5 -3 3c-4,2 -7,5 -10,7l-4 3 -6 5 -4 3c-3,2 -6,4 -9,6l-3 2c-3,2 -5,4 -8,5l-5 3 -6 4 -4 3c-3,2 -7,4 -10,5l-4 3 -7 4 -4 2c-3,1 -6,3 -10,5l-3 1c-3,2 -6,3 -9,5l-4 1c-3,2 -6,3 -8,4l-3 1c-4,2 -8,3 -11,5l-4 1c-3,1 -6,2 -8,3l-4 2c-4,1 -8,2 -12,4l0 0 0 0c-4,1 -8,2 -12,3l-3 1c-3,1 -6,2 -9,3l-3 1c-4,1 -8,2 -12,2l-3 1c-3,1 -7,1 -10,2l-3 1c-4,0 -8,1 -11,2l-2 0 0 0 -1 0c-4,1 -7,1 -11,2l-4 0c-3,0 -6,1 -9,1l-3 0c-4,1 -9,1 -13,1l-3 1c-3,0 -6,0 -10,0l-3 0c-5,0 -9,0 -13,0 -4,0 -9,0 -13,0l-3 0c-4,0 -8,0 -12,0l-1 0 0 0 -1 -1c-3,0 -7,0 -11,0l-4 -1c-3,0 -7,-1 -10,-1l-3 0c-4,-1 -7,-1 -11,-2l-3 0c-4,-1 -8,-2 -12,-3l0 0 0 0 -1 0c-4,0 -8,-1 -11,-2l-4 -1c-4,-1 -7,-2 -11,-3l0 0 -1 0 -1 0c-3,-1 -7,-2 -10,-3l-4 -1c-4,-1 -7,-2 -11,-3l0 0 0 0 -2 -1c-3,-1 -7,-2 -10,-3l-3 -1c-4,-2 -8,-3 -11,-5l-3 0c-3,-2 -6,-3 -9,-4l-3 -2c-4,-1 -7,-3 -11,-4l-3 -2c-2,-1 -5,-2 -8,-3l-4 -3 -8 -4 -6 -3 -6 -3 -5 -3 -6 -4c-3,-1 -5,-3 -8,-4l-5 -4 -5 -3 -7 -4c-2,-2 -4,-3 -7,-5l-5 -4 -5 -3 -6 -4 -7 -6 -5 -4 -5 -4 -5 -4c-2,-2 -5,-4 -7,-6l-5 -4 -5 -4 -4 -4c-3,-3 -6,-6 -9,-9l-3 -2 -6 -6 -1 -2c-4,-3 -7,-7 -11,-10l-2 -3 -6 -6 -1 -1c-4,-5 -7,-9 -11,-13l-2 -2c-6,-7 -12,-14 -17,-22l-2 -1 -5 -7 -2 -3c-3,-4 -6,-8 -9,-13l-2 -2c-5,-8 -11,-16 -16,-24l0 -1c-6,-8 -11,-17 -16,-26l0 0c-5,-9 -10,-17 -15,-26l-1 -2c-4,-9 -9,-18 -13,-27l0 0c132,-117 315,-190 517,-190 173,0 332,53 458,142z"/>
  <path class="fil2" d="M11531 8717c0,0 -115,-77 -276,-138 -136,-52 -1230,474 -207,-706 200,-230 146,-621 146,-621l146 383c-1018,1289 -311,424 191,1082z"/>
  <path class="fil3" d="M8980 7991c-54,5 565,-1625 565,-1625 0,0 488,307 1023,-12 536,-319 614,-307 614,-307 0,0 199,475 705,409 505,-66 1149,235 1149,235l263 999 32 -181 222 -1258 7 -36c0,0 120,-499 -193,-866 -313,-368 -1354,-993 -1354,-993 611,856 -338,-339 -981,-404 -2651,-265 -928,526 -1788,662 -1444,229 -818,696 -540,2342l240 1208 36 -173z"/>
  <path class="fil3" d="M12188 6642c213,0 398,123 492,304 -134,-88 -312,-141 -507,-141 -87,0 -170,11 -247,30l0 -126c78,-43 167,-67 262,-67z"/>
  <path class="fil3" d="M10064 6643c-213,0 -398,123 -492,303 134,-87 312,-140 507,-140 86,0 169,10 246,30l0 -126c-78,-43 -167,-67 -261,-67z"/>
  <ellipse class="fil3" cx="9960" cy="7865" rx="228" ry="364"/>
  <ellipse class="fil3" cx="12280" cy="7865" rx="228" ry="364"/>
  <path class="fil2" d="M13530 7646c366,-347 110,-79 108,261 -2,214 80,217 -49,341 -97,95 -37,190 -148,233 -140,54 59,-108 59,-347 0,-41 17,-475 30,-488z"/>
  <path class="fil2" d="M8758 7890c-365,-348 -110,-79 -108,260 2,215 -80,217 49,342 97,95 37,189 148,232 140,54 -58,-107 -58,-346 0,-41 -18,-476 -31,-488z"/>
  <ellipse class="fil3 str0" cx="11109" cy="9663" rx="554" ry="693"/>
  <path class="fil1" d="M11109 8958c245,0 453,200 526,476l-1053 0c73,-276 281,-476 527,-476z"/>
  <path class="fil4" d="M11606 9963c-90,231 -279,389 -498,389 -203,0 -381,-137 -477,-341 132,-117 315,-190 517,-190 173,0 333,53 458,142z"/>
  <path class="fil5" d="M9981 11559c376,202 796,506 1282,481 402,-20 822,-313 1122,-500 862,282 1638,351 1444,1238l-566 4936 -4420 31 -272 -5129c35,-833 1072,-901 1410,-1057z"/>
  <g id="_2129756526688">
   <path class="fil0" d="M5840 6600c0,0 -15,-176 60,-436 74,-260 330,-300 328,-310 0,-2 -157,-299 -384,-4 -228,295 -389,554 -416,424l-177 -851c-12,-59 -76,-135 -138,-107 -47,20 -88,94 -30,414 259,1442 -14,75 -202,-455 -9,-26 -33,-70 -89,-57 -56,14 -86,136 32,538 372,1263 119,498 -115,-156 -19,-52 -53,-175 -134,-135 -56,26 -61,111 34,406 301,933 263,874 -146,182 0,0 -295,-293 -28,278 268,571 217,649 418,789 202,141 183,38 217,119l206 478 683 -394 -270 -441 151 -282z"/>
   <path class="fil6" d="M5489 6294c-28,20 -47,20 -57,-7l0 0 20 388 107 146c0,0 -24,-30 -79,-211 -55,-180 14,-315 14,-315l-5 -1z"/>
   <path class="fil7" d="M4989 6808c-206,217 -250,210 -250,210l224 -140 176 -251 108 -234c-62,-42 -52,199 -258,415z"/>
   <polygon class="fil0" points="10079,13394 9116,14269 7056,11629 7052,11625 6980,11464 5217,7584 5907,7237 7977,10925 "/>
   <path class="fil5" d="M10094 13419l-999 960c-691,-899 -1478,-1778 -2037,-2704l0 0 -9 -17 923 -806 37 44c753,742 1454,1573 2085,2523z"/>
  </g>
  <g id="_2129756524512">
   <path class="fil0" d="M17749 18942c0,0 149,95 414,149 265,55 419,-153 427,-147 1,1 192,277 -175,342 -367,65 -671,87 -568,172l672 552c46,38 83,129 30,172 -39,31 -123,34 -381,-166 -1157,-898 -72,-22 310,390 19,20 47,61 9,105 -38,43 -160,13 -461,-278 -947,-915 -386,-336 85,174 37,41 129,129 57,182 -49,37 -127,2 -344,-219 -687,-699 -652,-638 -229,46 0,0 123,397 -259,-105 -382,-502 -474,-493 -506,-736 -31,-244 51,-179 -4,-248l-328 -404 665 -422 266 444 320 -3z"/>
   <path class="fil6" d="M17857 19395c-31,15 -40,32 -20,53l0 0 -335 -197 -79 -163c0,0 15,35 150,168 134,133 286,134 286,134l-2 5z"/>
   <path class="fil7" d="M17169 19599c-287,82 -301,124 -301,124l228 -133 304 -40 258 14c8,74 -201,-47 -489,35z"/>
   <polygon class="fil0" points="13695,12035 12473,12483 13857,15533 13859,15538 13968,15677 16588,19037 17215,18587 14908,15043 "/>
   <path class="fil5" d="M13680 12011l-1314 440c476,1029 890,2134 1451,3059l0 0 11 16 1142 -445 -22 -53c-308,-1011 -719,-2018 -1268,-3017z"/>
  </g>
  <polygon class="fil8" points="8882,17712 11330,17725 11330,17727 13242,17712 13177,26393 11648,26393 11151,21272 11096,21272 10758,26393 9201,26393 "/>
  <path class="fil4 str1" d="M12794 26063c342,-629 1490,-874 1618,-16 65,442 -42,616 -247,711 -217,100 -513,52 -891,52 -780,0 -1786,574 -1733,-506 28,-573 102,-125 450,-31 321,86 642,85 803,-210z"/>
  <path class="fil9 str1" d="M14349 26610c-46,66 -108,112 -184,148 -217,100 -513,52 -891,52 -591,0 -1312,329 -1603,19l2678 -219z"/>
  <path class="fil10 str1" d="M9640 26101c-342,-628 -1490,-873 -1618,-15 -66,441 42,615 247,710 217,101 513,53 891,53 780,0 1786,573 1733,-507 -28,-572 -103,-125 -450,-31 -321,87 -642,85 -803,-210z"/>
  <path class="fil9 str1" d="M8085 26649c45,66 108,112 184,147 217,101 513,53 891,53 591,0 1312,329 1603,18l-2678 -218z"/>
 </g>
</svg>
