<?xml version="1.0" encoding="UTF-8"?>
<!DOCTYPE svg PUBLIC "-//W3C//DTD SVG 1.1//EN" "http://www.w3.org/Graphics/SVG/1.1/DTD/svg11.dtd">
<!-- Creator: CorelDRAW X7 -->
<svg xmlns="http://www.w3.org/2000/svg" xml:space="preserve" width="297mm" height="210mm" version="1.1" style="shape-rendering:geometricPrecision; text-rendering:geometricPrecision; image-rendering:optimizeQuality; fill-rule:evenodd; clip-rule:evenodd"
viewBox="0 0 29700 21000"
 xmlns:xlink="http://www.w3.org/1999/xlink">
 <defs>
  <style type="text/css">
   <![CDATA[
    .str1 {stroke:black;stroke-width:20}
    .str0 {stroke:#006633;stroke-width:20}
    .fil10 {fill:none;fill-rule:nonzero}
    .fil5 {fill:#332C2B}
    .fil7 {fill:black}
    .fil1 {fill:#00003C}
    .fil3 {fill:#000050}
    .fil4 {fill:#000066}
    .fil8 {fill:#00297C}
    .fil11 {fill:#00297C}
    .fil6 {fill:#CCCCCC}
    .fil2 {fill:#E6E6E6}
    .fil12 {fill:#E6E6E6}
    .fil0 {fill:url(#id2)}
    .fil13 {fill:url(#id3);fill-rule:nonzero}
    .fil9 {fill:url(#id4);fill-rule:nonzero}
   ]]>
  </style>
   <clipPath id="id0" style="clip-rule:nonzero">
    <path d="M4852 4438l19 0c39,22 59,54 59,97l-69 1189c-39,365 -59,610 -59,737 0,414 75,732 224,952l0 47c-18,33 -38,50 -58,50 -19,0 -61,-8 -125,-21 -87,25 -224,57 -409,96 -22,20 -54,31 -97,31 -36,0 -58,-36 -66,-106 0,-290 -29,-701 -88,-1233l-8 0c-109,182 -170,361 -185,534 -85,930 -95,1473 -31,1629l0 37c0,26 -58,42 -174,50 -354,-21 -532,-56 -532,-108l0 -38c32,-167 57,-380 76,-640 -47,-891 -92,-1336 -134,-1336l0 -19c-29,0 -52,209 -69,628 0,39 16,223 49,553 -7,58 -36,87 -87,87 -89,-25 -348,-61 -774,-107 -65,-23 -97,-55 -97,-96l0 -10c65,-157 113,-855 144,-2094l0 -134c0,-264 -23,-464 -68,-602 0,-45 22,-66 68,-66l29 0c26,20 120,58 280,115 0,16 52,28 156,38l29 0c26,0 140,-57 340,-173 12,-8 21,-12 28,-12 39,16 59,39 59,69 -19,145 -29,235 -29,271 0,99 33,216 97,350 65,214 142,443 231,687l20 0c175,-590 262,-968 262,-1133l0 -47c0,-36 -4,-82 -10,-137 18,-40 40,-60 69,-60l203 119c62,13 133,21 212,28 187,0 346,-71 475,-213 12,-6 26,-9 40,-9zm1135 -276l10 0 682 224c79,14 174,22 286,22l184 0c136,0 295,-41 480,-124 46,20 77,43 92,71l0 21c0,18 -52,165 -154,439 -6,13 -9,24 -9,32 96,-35 211,-66 346,-93 45,0 72,31 83,93 -157,370 -236,695 -236,977 76,762 148,1275 215,1542l0 9c0,43 -28,67 -83,73l-9 0c-115,-38 -303,-137 -562,-297 170,225 255,350 255,378l0 9c0,75 -108,113 -326,113l-18 -9c-15,0 -22,3 -22,9 -24,0 -41,-3 -52,-9 -300,-8 -535,-12 -703,-12l-428 0c-143,0 -215,-41 -215,-123 103,-203 153,-311 153,-325l-11 0c-33,14 -84,24 -151,30 -225,-17 -338,-47 -338,-92 0,-6 -3,-17 -9,-30 40,-48 61,-191 61,-428 40,-278 59,-482 59,-611 0,-254 -68,-659 -203,-1216l0 -62c10,-67 44,-101 102,-101 115,81 179,122 193,122 30,12 129,25 297,41 -28,-249 -45,-450 -51,-602 14,-48 42,-71 82,-71zm397 897c0,90 62,522 184,1296 27,283 40,443 40,479 8,0 18,-3 31,-9 89,6 161,9 215,9l111 0c14,0 21,-6 21,-18 -67,-212 -122,-651 -162,-1318 -7,-106 -10,-183 -10,-234 0,-11 3,-65 10,-163 -112,-28 -225,-42 -338,-42l-102 0zm2412 -817c289,36 623,54 1002,54l127 0c605,49 964,74 1077,74 294,9 454,34 480,75 13,1 21,9 21,21l0 319c13,173 21,269 21,288l0 21c0,99 -85,149 -255,149 -90,45 -210,153 -361,321 -471,633 -724,1070 -758,1310 -7,0 -17,25 -31,74l10 0c193,0 410,7 648,21 144,0 215,-32 215,-95 7,-132 10,-228 10,-287 0,-183 -14,-418 -43,-704 18,-71 54,-106 107,-106l682 127c29,30 42,58 42,85l0 33c0,145 -9,439 -30,883 0,15 3,92 9,234 0,227 -46,372 -139,437 -52,22 -109,33 -170,33l-21 0c-61,0 -268,-14 -619,-42l-73 0 -874 63 -1085 -21 -289 42c-50,0 -78,-39 -85,-118l0 -73c0,-126 -46,-339 -139,-640l0 -21c0,-71 99,-107 297,-107 124,0 357,-99 694,-297 269,-114 526,-293 768,-534 202,-209 369,-453 501,-734l-12 0c-369,71 -685,107 -947,107 -540,-22 -810,-76 -810,-161 -27,0 -48,-245 -64,-734 11,-64 43,-97 94,-97zm5400 14c68,0 101,31 101,92 0,16 -7,89 -20,218 37,138 71,647 101,1524 8,0 15,35 23,104l117 12c137,0 262,-91 377,-276 115,-129 176,-193 184,-193l57 0c16,0 30,22 45,68 -53,315 -81,597 -81,848l-9 0c0,7 4,11 9,11l-9 57 0 196c0,215 19,430 57,642l0 36c0,18 -27,34 -81,44 -132,-15 -239,-23 -321,-23l-68 0c-304,16 -468,23 -493,23l-25 0c-73,0 -119,-49 -137,-148l34 -218c-14,-104 -21,-214 -21,-332l-13 0c-112,12 -331,23 -653,33 -27,-7 -65,-10 -116,-10l0 10c8,257 12,436 12,540 0,54 -31,95 -92,125 -213,8 -388,12 -527,12l-104 0c-114,0 -183,-34 -205,-104 6,-140 9,-257 9,-353 0,-147 -41,-495 -125,-1044l0 -12c15,-35 29,-54 45,-59l47 0c155,159 323,285 505,380 13,-63 25,-174 34,-333 0,-364 -42,-883 -125,-1560l0 -69c0,-145 53,-218 160,-218 186,23 342,34 470,34l35 0c124,0 391,-19 803,-57zm-814 1171l56 767c96,38 162,58 196,58l10 -114 0 -160c-15,-358 -22,-545 -22,-562l-11 0c-79,-8 -140,-12 -185,-12l-23 0c-15,1 -21,9 -21,23z"/>
   </clipPath>
   <clipPath id="id1" style="clip-rule:nonzero">
    <path d="M16065 8382l20 0c58,0 86,47 86,143 212,405 319,794 319,1165 5,0 12,58 19,175 0,206 -89,402 -270,586 -68,40 -158,72 -269,97l0 9c96,57 144,147 144,269 -6,135 -9,228 -9,279l29 20c114,-56 182,-114 200,-173 31,-54 61,-89 89,-105l18 0c65,0 97,73 97,220 14,295 26,442 38,442 -3,20 -20,46 -49,78 -140,-14 -239,-20 -298,-20 -64,0 -230,4 -500,11 -352,0 -528,-106 -528,-318 11,-120 17,-197 17,-232 -10,-320 -42,-480 -95,-480l-57 0c-71,0 -106,96 -106,288 0,117 3,265 9,444 0,116 -93,193 -279,229l-192 0c-180,0 -270,-25 -270,-77 -10,0 -20,-22 -29,-66l58 -1492 0 -20c0,-528 -26,-925 -78,-1194 8,-44 37,-66 86,-66 158,57 351,86 578,86 79,0 185,7 318,20 140,0 377,-64 712,-192 60,-36 124,-78 192,-126zm-1019 895c58,301 89,493 95,577l232 78 38 0 0 -9c-58,-326 -93,-557 -107,-695 -157,21 -243,37 -258,49zm3099 -907c46,14 69,44 69,91 -66,183 -130,397 -190,641 0,297 41,671 121,1123 119,709 179,1126 179,1251 0,57 -130,94 -391,111l-491 -60 -170 0c-113,13 -176,20 -190,20l-20 0c-73,-7 -110,-34 -110,-79 0,-15 47,-86 141,-213 80,-144 120,-334 120,-570 11,0 22,-96 31,-289 -27,-587 -64,-959 -111,-1115 -38,-182 -119,-440 -241,-771l0 -20c0,-53 50,-80 150,-80l91 -9c373,46 587,69 641,69 119,-26 243,-60 371,-100zm2477 -247l19 0c11,0 21,11 31,31l0 9c-47,169 -70,281 -70,336 0,327 100,742 303,1245l0 31c-5,20 -28,37 -71,50 -512,-122 -798,-193 -860,-212 -28,-29 -42,-56 -42,-82l0 -132c0,-146 -37,-237 -111,-272 -53,-21 -83,-31 -90,-31 -49,0 -110,60 -184,181l0 71c45,156 220,311 526,466 297,71 527,189 690,356 55,115 82,257 82,425 0,268 -118,535 -356,800 -144,128 -296,192 -455,192 -168,0 -475,-68 -922,-204 -277,-119 -433,-189 -466,-212 -19,0 -31,-23 -40,-71 60,-126 90,-254 90,-384l0 -62c0,-112 -30,-196 -90,-252l0 -31c0,-47 23,-70 70,-70 118,0 308,-7 569,-20 39,13 59,40 59,81l0 9c-26,105 -40,173 -40,203l0 52c0,82 75,139 224,172l9 0c229,0 344,-64 344,-193 0,-135 -181,-324 -546,-568 -50,-69 -199,-160 -447,-274l-39 -50 0 -61c95,-190 141,-349 141,-474 0,-91 -57,-304 -172,-639 4,-55 32,-82 82,-82 215,89 421,132 616,132 507,0 848,-125 1024,-375 51,-61 92,-91 122,-91zm3127 456l18 0c37,20 55,50 55,90l-64 1114c-37,341 -55,570 -55,690 0,387 70,685 210,891l0 44c-17,31 -36,46 -55,46 -17,0 -57,-7 -117,-19 -82,23 -209,53 -383,90 -20,19 -50,29 -90,29 -34,0 -54,-33 -62,-100 0,-271 -27,-655 -82,-1153l-9 0c-101,170 -159,337 -172,499 -80,871 -89,1379 -29,1525l0 35c0,25 -54,40 -164,47 -331,-19 -497,-53 -497,-102l0 -35c29,-156 53,-355 71,-599 -45,-834 -86,-1251 -126,-1251l0 -18c-27,0 -48,196 -64,588 0,37 15,209 46,518 -7,54 -34,81 -82,81 -83,-23 -326,-56 -725,-99 -60,-22 -90,-52 -90,-91l0 -9c60,-147 105,-800 135,-1960l0 -126c0,-247 -22,-435 -64,-564 0,-41 21,-62 64,-62l26 0c25,19 113,55 263,108 0,15 49,27 146,36l26 0c25,0 132,-54 319,-162 11,-7 20,-11 26,-11 37,15 55,36 55,64 -17,136 -26,220 -26,254 0,93 30,203 91,328 60,200 132,415 216,643l18 0c164,-553 245,-907 245,-1061l0 -44c0,-34 -3,-77 -9,-128 17,-37 38,-56 64,-56l191 111c58,12 125,20 199,26 175,0 324,-66 444,-199 12,-5 24,-8 37,-8zm2275 -171c64,0 95,29 95,86 0,15 -7,83 -19,204 35,130 67,606 95,1428 7,0 14,32 22,97l108 11c128,0 246,-86 353,-259 108,-120 166,-181 173,-181l53 0c15,0 29,21 42,64 -50,295 -75,560 -75,794l-9 0c0,7 3,11 9,11l-9 53 0 184c0,201 18,402 53,601l0 33c0,18 -25,32 -75,42 -124,-15 -224,-22 -300,-22l-65 0c-284,15 -438,22 -461,22l-23 0c-69,0 -112,-46 -128,-139l31 -204c-13,-97 -20,-201 -20,-311l-11 0c-106,12 -310,21 -612,30 -25,-6 -61,-9 -109,-9l0 9c8,241 11,409 11,507 0,50 -28,89 -86,117 -199,7 -363,11 -493,11l-97 0c-108,0 -172,-32 -192,-97 5,-132 8,-242 8,-332 0,-137 -38,-463 -117,-977l0 -11c14,-32 27,-51 43,-55l43 0c145,149 303,267 473,356 12,-60 23,-163 31,-312 0,-341 -38,-827 -117,-1461l0 -64c0,-136 50,-204 151,-204 174,21 320,31 439,31l34 0c115,0 366,-17 751,-53zm-762 1097l53 718c90,35 151,53 183,53l9 -106 0 -150c-13,-335 -20,-510 -20,-526l-11 0c-74,-8 -131,-11 -172,-11l-22 0c-14,1 -20,9 -20,22z"/>
   </clipPath>
  <linearGradient id="id2" gradientUnits="userSpaceOnUse" x1="15037" y1="16334.1" x2="15037" y2="4528.15">
   <stop offset="0" style="stop-opacity:1; stop-color:#292796"/>
   <stop offset="0.231373" style="stop-opacity:1; stop-color:#171765"/>
   <stop offset="1" style="stop-opacity:1; stop-color:#040633"/>
  </linearGradient>
  <linearGradient id="id3" gradientUnits="userSpaceOnUse" x1="20588" y1="12479.6" x2="20537.6" y2="8050.64">
   <stop offset="0" style="stop-opacity:1; stop-color:#B3B3B3"/>
   <stop offset="1" style="stop-opacity:1; stop-color:#4F4697"/>
  </linearGradient>
  <linearGradient id="id4" gradientUnits="userSpaceOnUse" x1="8730.66" y1="8136.19" x2="8667.16" y2="4552.97">
   <stop offset="0" style="stop-opacity:1; stop-color:#9BA0A3"/>
   <stop offset="1" style="stop-opacity:1; stop-color:#514697"/>
  </linearGradient>
 </defs>
 <g id="Layer_x0020_1">
  <metadata id="CorelCorpID_0Corel-Layer"/>
  <rect class="fil0 str0" x="-23" y="-110" width="30120" height="21082"/>
  <path class="fil1" d="M-23 19997c0,0 1861,-560 2182,-462 321,98 1134,252 1498,294 364,42 2996,-98 3231,-84 236,14 600,182 878,210 278,28 150,-601 342,-629 193,-28 450,-14 557,97 107,112 -321,420 -107,490 102,33 449,-161 784,-372 364,-230 714,-481 714,-481l920 461 1519 -559c0,0 2846,769 3231,797 386,28 129,-713 578,-643 450,70 257,-14 385,84 129,98 -149,587 -149,587l2161 307 1156 -950c342,140 877,489 1177,517 299,28 2289,-210 2035,-210 0,0 826,434 1207,504 381,69 3005,-559 3005,-559 0,0 1038,587 1397,740 360,154 1419,-181 1419,-181l0 1017 -30120 0 0 -975z"/>
  <ellipse class="fil2" cx="21104" cy="16703" rx="2729" ry="2668"/>
  <path class="fil3" d="M-23 19018c465,-169 804,-973 1693,-635 889,339 3175,551 3175,551l1312 -847 1143 1058 4022 -2159 550 1101 974 -677 3005 1354 1101 -1439 1228 1101 3894 -1482c0,0 -1227,-508 -973,-1185 254,-678 1439,550 1439,550l169 -201 847 995 1418 360 2300 403 579 634 825 -254 1419 1100 14 670 -1282 204 -151 -84 -235 -92 -1263 -624 -82 19 -301 84 -2114 475 -388 7 -1186 -502 -1361 124 -712 50 -211 -60 -239 -111 -729 -362 -1156 950 -2161 -307 178 -441 -29 -146 -385 -84 -207 53 -151 425 -60 108 -122 107 -2341 -560 -928 -287 -1519 559 -920 -461 -231 176 -272 171 -212 135 -259 164 -224 125 -115 57 -116 24 -34 12 -33 -12 -114 -59 130 -176 89 -254 -557 -97 -96 116 -66 379 -53 79 -28 30 -75 49 -229 -63 -129 -35 -338 -99 -595 -30 -1336 51 -796 26 -561 7 -211 -15 -428 -65 -582 -56 -427 -163 -601 53 -367 80 -1213 327c0,0 89,-1019 0,-979z"/>
  <path class="fil4" d="M26608 17762c0,0 -138,-3101 -21,-3387 116,-286 698,-1069 772,-1037 74,32 138,751 138,889 0,137 -85,95 -95,53 -11,-43 -254,-328 -254,-328 0,0 -74,0 -138,74 -63,74 -254,190 -264,296 -11,106 -106,265 31,243 138,-21 21,-158 96,-232 74,-74 232,-170 232,-170l149 138c-75,85 -117,21 -180,95 -64,74 -434,646 -212,783 222,138 116,-190 116,-264 0,-74 32,-328 96,-318 63,11 105,-201 232,-21 127,180 0,180 -31,275 -32,95 -212,-42 -180,85 32,127 53,317 233,190 180,-127 275,-381 275,-381l0 -116c0,0 211,-106 201,-191 -11,-84 190,-84 201,11 11,95 -21,381 -21,381l-148 106c-11,169 10,254 105,254 96,0 265,-32 265,-117 0,-84 -21,-190 -21,-190 0,0 -11,-635 -42,-720 -32,-84 -191,-106 -212,-10 -21,95 -169,116 -169,116 0,0 -233,-42 -117,-21 117,21 -10,-1122 -10,-1122 0,0 -96,-233 -202,-212 -105,22 -677,731 -677,731 0,0 -243,402 -307,370 -63,-32 -127,95 -137,32 -11,-64 -170,0 -212,-127 -42,-127 -307,-498 -307,-498 0,0 -74,32 -95,64 -21,32 -159,127 -159,127 0,0 -63,53 -116,-53 -53,-106 -201,-286 -201,-286 0,0 -32,-53 -149,-42 -116,11 -571,-42 -635,53 -63,95 -74,-307 -74,-307 0,0 53,-275 -63,-265 -245,23 -373,424 -106,403 176,-15 74,275 74,275 0,0 -180,21 -201,-85 -21,-106 -138,-413 -138,-413 0,0 -190,43 -158,138 31,95 158,423 158,423 0,0 159,148 286,148 127,0 318,-84 381,-137 64,-53 423,137 476,307 53,169 212,296 191,423 -21,127 -265,233 -307,286 -42,53 -127,116 -265,116 -137,0 -158,53 -222,0 -63,-53 -233,-180 -296,-95 -64,85 -95,974 -95,974 0,0 -572,709 -381,994 190,286 84,-370 137,-391 53,-21 11,-254 138,-244 127,11 42,138 31,244 -10,106 -52,317 -84,434 -32,116 -180,349 -64,413 117,63 148,-85 180,-286 32,-201 64,-424 64,-424 0,0 63,233 95,392 32,159 95,392 233,402 137,11 317,-169 264,-296 -53,-127 -232,-64 -232,-64 0,0 -212,-116 -159,-243 53,-127 95,-328 95,-328 0,0 42,-74 106,32 63,105 144,193 116,359 -27,167 223,392 223,191 0,-201 -43,-254 -43,-307 0,-53 170,-190 32,-349 -138,-159 -127,-159 -265,-244 -137,-84 -222,0 -211,-158 10,-159 -32,-318 127,-477 158,-158 127,-222 254,-232 127,-11 201,-11 338,137 138,148 127,106 159,402 32,297 21,307 0,540 -21,233 -32,254 -53,519 -21,264 -53,1069 -53,1132 0,64 1482,138 1482,138z"/>
  <path class="fil5 str1" d="M2518 15135c0,0 -67,85 -25,97 43,12 49,-24 116,6 67,30 158,176 164,218 6,43 12,67 -25,97 -36,31 -339,7 -339,7l0 78c0,0 -134,25 -164,-30 -31,-55 54,-158 -6,-133 -61,24 -383,-261 -371,-304 13,-42 -431,-30 -431,-30l7 73c0,0 -183,48 -189,12 -6,-37 6,-182 43,-182 36,0 218,0 267,0 48,0 182,-146 182,-146l12 -79c0,0 -73,67 -67,12 6,-54 37,-109 37,-109l67 18c0,0 36,-73 6,-79 -31,-6 -152,-24 -152,-66 0,-16 -54,-80 -41,-128 5,-16 -10,-31 25,-41 42,-12 46,5 46,5 0,0 -6,-225 18,-255 25,-31 116,54 116,164 0,109 164,18 194,73 30,54 22,88 68,81 45,-8 121,-16 239,-16 117,0 159,-22 269,8 110,30 224,171 262,228 38,57 34,159 -27,125 -61,-34 -34,-125 -136,-148 -103,-23 -160,-114 -126,-30 35,83 141,117 110,166 -30,50 -30,65 -91,42 -60,-23 -83,-76 -106,-42 -23,35 -45,72 15,107 61,34 107,155 190,144 83,-12 49,11 125,-34 76,-46 114,-88 159,-50 46,38 186,95 46,156 -140,61 -53,72 -182,72 -129,0 -175,-4 -228,-61 -53,-57 -77,-26 -77,-26z"/>
  <g id="_2128291866640">
   <path class="fil6" d="M23719 17026c0,0 45,-376 301,-391 255,-15 270,40 270,40 0,0 160,165 153,228 -7,69 50,186 15,211 -35,25 -32,73 -32,73 0,0 53,124 60,160 7,36 -32,69 -75,30 -44,-39 -17,-83 -66,-105 -48,-23 -55,15 -55,15l39 86 53 86c3,6 -49,43 -82,18 -33,-25 -13,-17 -50,-65 -36,-47 -37,-70 -65,-55 -29,15 7,55 15,70 8,16 35,40 39,60 5,20 -31,67 -57,64 -25,-3 -131,-66 -141,-96 -10,-30 -40,0 -45,45 -5,45 -70,95 -100,55 -30,-40 -35,-135 -45,-165 -10,-30 -98,-94 -119,-161 -21,-66 -13,-203 -13,-203z"/>
   <path class="fil7" d="M24069 16908c2,5 4,11 7,18 13,24 35,58 56,85 22,27 80,70 98,70 17,0 87,12 45,-93 -43,-105 -58,-128 -93,-163 -35,-35 -79,-55 -105,-40 -26,15 -33,73 -20,98 12,25 12,25 12,25z"/>
   <path class="fil7" d="M23849 17048c1,5 3,12 7,18 12,24 34,59 55,85 23,28 81,70 98,70 18,0 88,13 45,-92 -42,-106 -57,-128 -92,-163 -36,-35 -80,-56 -106,-40 -25,15 -32,72 -20,97 13,25 13,25 13,25z"/>
   <path class="fil7 str1" d="M24149 17142c0,0 5,23 15,28 10,5 23,14 34,8 12,-6 8,-27 -8,-40 -16,-12 -19,-13 -30,-10 -11,2 -11,14 -11,14z"/>
  </g>
  <path class="fil8" d="M729 3802c0,0 8,265 93,290 86,25 621,424 906,448 284,23 582,12 714,0 132,-12 395,-37 584,-154 188,-117 465,-176 642,-242 176,-67 480,-194 595,-205 116,-11 208,-86 535,-149 326,-64 449,-175 736,-119 288,57 493,121 751,213 258,92 697,168 880,168 182,-1 514,-181 667,-328 152,-147 296,-210 443,-241 146,-30 363,-199 718,-133 355,67 810,307 980,358 171,50 315,170 306,71 -9,-99 -458,-638 -564,-712 -107,-73 -297,-155 -546,-331 -249,-176 -252,-209 -475,-288 -224,-79 -137,-37 -474,-89 -337,-52 -900,-33 -1009,44 -109,76 -11,67 -361,233 -350,165 -290,93 -622,273 -332,181 -274,275 -647,193 -373,-81 -289,-73 -598,-177 -308,-104 -216,-179 -589,-261 -373,-82 -144,-119 -490,-87 -345,32 -321,113 -556,267 -235,155 -250,173 -563,385 -312,212 -203,135 -493,228 -291,94 -500,163 -761,220 -260,58 -326,64 -458,76 -132,12 -344,49 -344,49z"/>
  <g id="_2128291866096">
   <path class="fil6" d="M4681 20062c0,0 316,-209 493,-25 177,185 145,232 145,232 0,0 -22,229 -74,265 -57,39 -109,158 -150,148 -42,-11 -77,22 -77,22 0,0 -60,121 -83,150 -23,28 -73,21 -72,-38 2,-58 52,-66 38,-118 -14,-51 -47,-32 -47,-32l-40 85 -32 96c-2,7 -64,-8 -66,-50 -3,-41 4,-21 17,-80 12,-59 29,-73 -1,-85 -30,-12 -37,40 -43,57 -7,16 -8,52 -20,69 -13,16 -72,19 -86,-2 -14,-22 -35,-143 -18,-170 16,-27 -26,-31 -64,-5 -37,25 -118,8 -107,-41 11,-48 80,-114 97,-141 16,-27 8,-136 44,-195 37,-59 146,-142 146,-142z"/>
   <path class="fil7" d="M4999 20252c-3,5 -6,10 -9,17 -11,25 -22,64 -29,98 -6,34 -1,106 10,119 12,14 48,75 100,-25 53,-101 60,-127 64,-177 4,-49 -10,-96 -38,-106 -28,-10 -76,23 -87,48 -11,26 -11,26 -11,26z"/>
   <path class="fil7" d="M4749 20175c-3,5 -6,10 -9,17 -10,25 -22,64 -29,98 -6,35 -1,106 10,120 12,13 48,75 100,-26 53,-101 60,-127 64,-176 4,-50 -10,-97 -38,-107 -28,-9 -76,23 -87,49 -11,25 -11,25 -11,25z"/>
   <path class="fil7 str1" d="M4873 20464c0,0 -15,19 -12,30 3,11 4,27 16,32 12,4 26,-12 25,-33 -1,-20 -2,-22 -11,-29 -10,-7 -18,0 -18,0z"/>
  </g>
  <g id="_2128291864912">
   <path class="fil6" d="M7255 19754c0,0 45,-376 300,-391 256,-15 271,40 271,40 0,0 160,165 153,229 -7,68 50,185 15,210 -35,25 -32,73 -32,73 0,0 53,124 60,160 7,36 -32,69 -76,30 -43,-39 -16,-82 -65,-105 -48,-23 -55,15 -55,15l39 86 53 86c3,6 -49,44 -82,18 -33,-25 -13,-17 -50,-65 -36,-47 -37,-70 -65,-55 -29,15 7,55 15,70 8,16 35,40 39,61 5,20 -31,67 -57,63 -25,-3 -131,-66 -141,-96 -10,-30 -40,0 -45,45 -5,45 -70,95 -100,55 -30,-40 -35,-135 -45,-165 -10,-30 -98,-94 -119,-161 -21,-66 -13,-203 -13,-203z"/>
   <path class="fil7" d="M7605 19636c2,5 4,11 7,18 13,24 35,58 56,85 22,27 80,70 98,70 17,0 87,13 45,-93 -43,-105 -58,-128 -93,-163 -35,-35 -79,-55 -105,-40 -26,15 -33,73 -20,98 12,25 12,25 12,25z"/>
   <path class="fil7" d="M7385 19776c1,5 3,12 7,18 12,24 34,59 55,85 23,28 81,70 98,70 18,0 88,13 45,-92 -42,-106 -57,-128 -93,-163 -35,-35 -79,-56 -105,-40 -25,15 -32,72 -20,97 13,25 13,25 13,25z"/>
   <path class="fil7 str1" d="M7685 19870c0,0 4,23 15,28 10,5 23,14 34,8 12,-6 8,-27 -8,-40 -16,-12 -19,-13 -30,-10 -11,2 -11,14 -11,14z"/>
  </g>
  <g id="_2128291862704">
   <path class="fil6" d="M12824 19766c0,0 225,-305 454,-192 230,114 216,169 216,169 0,0 57,222 20,274 -40,56 -48,186 -91,190 -43,5 -64,47 -64,47 0,0 -15,135 -27,170 -11,34 -61,44 -80,-11 -19,-56 26,-81 -5,-124 -31,-43 -55,-14 -55,-14l-9 93 3 102c1,6 -63,14 -79,-25 -17,-38 -4,-22 -12,-81 -8,-59 3,-79 -29,-80 -32,-1 -21,51 -22,68 0,18 11,53 5,72 -6,20 -61,43 -81,27 -20,-15 -81,-122 -75,-153 6,-31 -35,-20 -62,17 -26,37 -108,48 -114,-2 -7,-49 36,-135 42,-166 6,-31 -38,-130 -24,-198 14,-68 89,-183 89,-183z"/>
   <path class="fil7" d="M13187 19836c-1,5 -2,12 -3,19 -1,27 1,68 7,102 5,35 35,100 50,109 15,9 70,54 85,-59 15,-112 13,-139 0,-187 -13,-48 -42,-87 -72,-87 -30,1 -64,47 -66,75 -1,28 -1,28 -1,28z"/>
   <path class="fil7" d="M12926 19849c-1,5 -3,12 -3,19 -1,27 1,68 7,102 5,35 35,100 50,109 15,9 70,54 85,-58 15,-113 13,-140 0,-188 -13,-48 -42,-87 -72,-87 -30,1 -64,47 -66,75 -1,28 -1,28 -1,28z"/>
   <path class="fil7 str1" d="M13141 20079c0,0 -8,22 -1,31 6,10 13,24 26,25 13,0 20,-20 12,-39 -8,-19 -10,-21 -21,-24 -11,-3 -16,7 -16,7z"/>
  </g>
  <g id="_2128291862000">
   <path class="fil6" d="M16142 20177c0,0 45,-376 301,-391 256,-15 271,40 271,40 0,0 160,165 153,228 -8,69 50,186 15,211 -35,25 -33,72 -33,72 0,0 53,125 60,161 7,36 -31,69 -75,30 -44,-39 -17,-83 -65,-105 -48,-23 -55,15 -55,15l38 85 53 87c4,5 -48,43 -81,18 -33,-25 -14,-17 -50,-65 -37,-48 -37,-70 -66,-55 -28,15 7,54 16,70 8,16 35,40 39,60 4,20 -32,67 -57,64 -25,-4 -131,-66 -141,-96 -10,-30 -40,0 -45,45 -5,45 -70,95 -100,55 -30,-40 -35,-135 -45,-166 -11,-30 -98,-94 -120,-160 -21,-66 -13,-203 -13,-203z"/>
   <path class="fil7" d="M16493 20059c1,5 3,11 7,18 12,24 34,58 56,85 22,27 80,70 97,70 18,0 88,12 45,-93 -42,-105 -57,-128 -92,-163 -35,-35 -80,-55 -106,-40 -25,15 -32,73 -20,98 13,25 13,25 13,25z"/>
   <path class="fil7" d="M16272 20199c2,5 4,11 7,18 13,24 35,58 56,85 22,28 80,70 98,70 17,0 87,13 45,-93 -43,-105 -58,-127 -93,-163 -35,-35 -79,-55 -105,-40 -26,16 -33,73 -20,98 12,25 12,25 12,25z"/>
   <path class="fil7 str1" d="M16573 20292c0,0 4,23 14,28 10,5 23,15 35,9 11,-6 8,-27 -9,-40 -16,-12 -18,-13 -29,-11 -12,3 -11,14 -11,14z"/>
  </g>
  <path class="fil9" d="M4852 4438l19 0c39,22 59,54 59,97l-69 1189c-39,365 -59,610 -59,737 0,414 75,732 224,952l0 47c-18,33 -38,50 -58,50 -19,0 -61,-8 -125,-21 -87,25 -224,57 -409,96 -22,20 -54,31 -97,31 -36,0 -58,-36 -66,-106 0,-290 -29,-701 -88,-1233l-8 0c-109,182 -170,361 -185,534 -85,930 -95,1473 -31,1629l0 37c0,26 -58,42 -174,50 -354,-21 -532,-56 -532,-108l0 -38c32,-167 57,-380 76,-640 -47,-891 -92,-1336 -134,-1336l0 -19c-29,0 -52,209 -69,628 0,39 16,223 49,553 -7,58 -36,87 -87,87 -89,-25 -348,-61 -774,-107 -65,-23 -97,-55 -97,-96l0 -10c65,-157 113,-855 144,-2094l0 -134c0,-264 -23,-464 -68,-602 0,-45 22,-66 68,-66l29 0c26,20 120,58 280,115 0,16 52,28 156,38l29 0c26,0 140,-57 340,-173 12,-8 21,-12 28,-12 39,16 59,39 59,69 -19,145 -29,235 -29,271 0,99 33,216 97,350 65,214 142,443 231,687l20 0c175,-590 262,-968 262,-1133l0 -47c0,-36 -4,-82 -10,-137 18,-40 40,-60 69,-60l203 119c62,13 133,21 212,28 187,0 346,-71 475,-213 12,-6 26,-9 40,-9zm1135 -276l10 0 682 224c79,14 174,22 286,22l184 0c136,0 295,-41 480,-124 46,20 77,43 92,71l0 21c0,18 -52,165 -154,439 -6,13 -9,24 -9,32 96,-35 211,-66 346,-93 45,0 72,31 83,93 -157,370 -236,695 -236,977 76,762 148,1275 215,1542l0 9c0,43 -28,67 -83,73l-9 0c-115,-38 -303,-137 -562,-297 170,225 255,350 255,378l0 9c0,75 -108,113 -326,113l-18 -9c-15,0 -22,3 -22,9 -24,0 -41,-3 -52,-9 -300,-8 -535,-12 -703,-12l-428 0c-143,0 -215,-41 -215,-123 103,-203 153,-311 153,-325l-11 0c-33,14 -84,24 -151,30 -225,-17 -338,-47 -338,-92 0,-6 -3,-17 -9,-30 40,-48 61,-191 61,-428 40,-278 59,-482 59,-611 0,-254 -68,-659 -203,-1216l0 -62c10,-67 44,-101 102,-101 115,81 179,122 193,122 30,12 129,25 297,41 -28,-249 -45,-450 -51,-602 14,-48 42,-71 82,-71zm397 897c0,90 62,522 184,1296 27,283 40,443 40,479 8,0 18,-3 31,-9 89,6 161,9 215,9l111 0c14,0 21,-6 21,-18 -67,-212 -122,-651 -162,-1318 -7,-106 -10,-183 -10,-234 0,-11 3,-65 10,-163 -112,-28 -225,-42 -338,-42l-102 0zm2412 -817c289,36 623,54 1002,54l127 0c605,49 964,74 1077,74 294,9 454,34 480,75 13,1 21,9 21,21l0 319c13,173 21,269 21,288l0 21c0,99 -85,149 -255,149 -90,45 -210,153 -361,321 -471,633 -724,1070 -758,1310 -7,0 -17,25 -31,74l10 0c193,0 410,7 648,21 144,0 215,-32 215,-95 7,-132 10,-228 10,-287 0,-183 -14,-418 -43,-704 18,-71 54,-106 107,-106l682 127c29,30 42,58 42,85l0 33c0,145 -9,439 -30,883 0,15 3,92 9,234 0,227 -46,372 -139,437 -52,22 -109,33 -170,33l-21 0c-61,0 -268,-14 -619,-42l-73 0 -874 63 -1085 -21 -289 42c-50,0 -78,-39 -85,-118l0 -73c0,-126 -46,-339 -139,-640l0 -21c0,-71 99,-107 297,-107 124,0 357,-99 694,-297 269,-114 526,-293 768,-534 202,-209 369,-453 501,-734l-12 0c-369,71 -685,107 -947,107 -540,-22 -810,-76 -810,-161 -27,0 -48,-245 -64,-734 11,-64 43,-97 94,-97zm5400 14c68,0 101,31 101,92 0,16 -7,89 -20,218 37,138 71,647 101,1524 8,0 15,35 23,104l117 12c137,0 262,-91 377,-276 115,-129 176,-193 184,-193l57 0c16,0 30,22 45,68 -53,315 -81,597 -81,848l-9 0c0,7 4,11 9,11l-9 57 0 196c0,215 19,430 57,642l0 36c0,18 -27,34 -81,44 -132,-15 -239,-23 -321,-23l-68 0c-304,16 -468,23 -493,23l-25 0c-73,0 -119,-49 -137,-148l34 -218c-14,-104 -21,-214 -21,-332l-13 0c-112,12 -331,23 -653,33 -27,-7 -65,-10 -116,-10l0 10c8,257 12,436 12,540 0,54 -31,95 -92,125 -213,8 -388,12 -527,12l-104 0c-114,0 -183,-34 -205,-104 6,-140 9,-257 9,-353 0,-147 -41,-495 -125,-1044l0 -12c15,-35 29,-54 45,-59l47 0c155,159 323,285 505,380 13,-63 25,-174 34,-333 0,-364 -42,-883 -125,-1560l0 -69c0,-145 53,-218 160,-218 186,23 342,34 470,34l35 0c124,0 391,-19 803,-57zm-814 1171l56 767c96,38 162,58 196,58l10 -114 0 -160c-15,-358 -22,-545 -22,-562l-11 0c-79,-8 -140,-12 -185,-12l-23 0c-15,1 -21,9 -21,23z"/>
  <g style="clip-path:url(#id0)">
   <g id="_2128291853968">
    <path id="1" class="fil6" d="M1949 4347c0,0 337,442 406,479 69,37 58,11 95,69 37,58 27,-43 74,-43 48,0 58,16 74,53 16,37 69,111 80,53 10,-58 10,-58 10,-58 0,0 74,-58 106,0 32,58 53,90 53,90 0,0 16,-53 48,-53 31,0 53,-26 100,64 48,90 80,111 80,111 0,0 121,-90 158,-196 37,-106 90,-677 90,-677l-1374 108z"/>
    <path class="fil6" d="M3857 4888l156 -77c0,0 85,137 115,141 31,4 103,-82 156,-73 53,9 102,99 135,107 33,8 33,8 33,8l39 -58 410 124 295 -418 -609 -656 -1153 127 423 775z"/>
    <path class="fil6" d="M5418 5086c132,74 328,-37 407,100 80,138 148,122 148,122 0,0 -15,-249 -63,-249 -48,0 217,-79 307,21 90,101 69,-243 323,-127 254,117 291,223 328,265 37,42 -27,-227 153,-201 180,26 201,42 222,116 22,74 32,-164 127,-127 96,37 -111,249 75,233 185,-16 137,-190 285,-121 148,68 254,84 254,84l275 -836 -1518 -571 -1053 5 -672 386 402 900z"/>
    <path class="fil6" d="M8759 4799c53,0 85,-81 212,-81 127,0 138,-162 233,27 95,190 190,163 222,54 32,-108 11,-234 138,-81 127,154 127,154 127,154 0,0 275,0 349,-73 74,-72 201,-180 328,-54 127,127 180,217 275,226 96,9 201,0 201,-81 0,-82 328,153 328,153 0,0 254,-235 297,-289 42,-54 127,-551 127,-551l-815 -180 -1630 -244 -952 289 560 731z"/>
    <path class="fil6" d="M12764 4794c37,-26 11,-116 143,-111 133,6 148,170 148,170 0,0 376,-196 567,-196 190,0 -37,143 -11,196 26,53 -63,31 26,53 90,21 101,89 207,-16 106,-106 5,-164 143,-164 137,0 323,-6 323,-6l291 -58 -244 -577 -1841 22 248 687z"/>
    <path class="fil6" d="M5759 5527l-58 190c0,0 -48,169 -5,344 42,175 26,191 84,376 59,185 117,270 175,391 58,122 175,186 175,254 0,69 127,74 227,122 101,48 21,-143 -74,-217 -95,-74 -69,-206 -190,-407 -122,-201 -202,16 -170,-244 32,-259 21,-730 -16,-756 -37,-27 -63,-48 -63,-48l-85 -5z"/>
    <path class="fil6" d="M7001 5440l-82 122c0,0 188,169 207,199 18,29 18,-204 18,-239 0,-34 -74,-193 -108,-137 -35,55 -35,55 -35,55z"/>
    <path class="fil6" d="M6964 5816c59,371 101,498 122,651 21,154 101,-21 101,-21 0,0 -85,-423 -122,-492 -37,-69 -101,-138 -101,-138z"/>
    <path class="fil6" d="M10639 5435c0,0 -280,688 -532,688 -252,0 -439,222 -523,265 -84,42 224,63 224,63 0,0 523,-296 570,-360 46,-63 389,-481 308,-529 -82,-47 -47,-127 -47,-127z"/>
    <path class="fil6" d="M8894 7167c-69,42 -190,214 58,187 249,-26 334,-108 503,14 169,121 190,66 323,60 132,-5 148,106 333,32 185,-74 577,-153 577,-153 0,0 116,-138 -16,-122 -132,16 -460,77 -508,77 -48,0 -632,-135 -632,-135l-638 40z"/>
    <path class="fil6" d="M11059 5914c0,58 -5,164 -5,164l143 -159 -138 -5z"/>
    <path class="fil6" d="M12964 5215c-47,143 -21,1127 -69,1254 -47,127 -58,207 -58,207l196 -387c0,0 16,43 37,-211 21,-254 -11,-328 -48,-413 -37,-85 -58,-201 -42,-259 16,-59 82,-138 82,-191 0,-53 -107,-174 -106,-149l8 149z"/>
    <path class="fil6" d="M13698 5742c-24,5 29,59 29,191 0,132 -6,217 -6,217l37 106c0,0 74,-233 69,-291 -5,-58 24,-149 24,-149l-153 -74z"/>
    <path class="fil6" d="M12457 7081c0,84 -18,68 -18,227 0,159 90,207 108,207 19,0 117,15 151,-8 35,-24 -174,-191 -164,-273 11,-82 -77,-153 -77,-153z"/>
    <path class="fil6" d="M14123 7044c0,63 42,195 42,270 0,74 0,31 -5,105 -5,74 69,64 164,85 95,21 196,58 265,32 68,-27 190,-58 206,-117 16,-58 -11,-90 -42,-90 -32,0 -64,0 -32,0 32,0 -53,80 -53,80 0,0 -90,-90 -175,-58 -84,31 -132,31 -132,31l-100 32c0,0 116,-243 52,-286 -63,-42 -190,-84 -190,-84z"/>
    <polygon class="fil6" points="3055,5607 3224,5871 3209,5533 "/>
    <polygon class="fil6" points="3939,5660 3941,5737 3971,5721 "/>
    <polygon class="fil6" points="3881,5091 3701,5700 3759,5710 3944,5117 "/>
    <path class="fil6" d="M3420 7282c0,-45 49,573 49,573 0,0 52,200 63,303 11,103 37,-297 37,-324 0,-27 -37,-444 -37,-444l-112 -108z"/>
    <path class="fil6" d="M4328 6337c-37,9 69,683 111,778 42,95 5,254 5,254l228 -48c0,0 -122,-338 -143,-370 -21,-32 -152,-557 -201,-614z"/>
    <path class="fil6" d="M2474 5158c-32,-15 -31,132 1,175 31,42 74,889 5,1090 -69,201 -159,412 -79,513 79,101 148,122 95,228 -53,105 -95,243 -95,243l74 85 100 -122 -10 -1996 -91 -216z"/>
   </g>
  </g>
  <path class="fil10" d="M4852 4438l19 0c39,22 59,54 59,97l-69 1189c-39,365 -59,610 -59,737 0,414 75,732 224,952l0 47c-18,33 -38,50 -58,50 -19,0 -61,-8 -125,-21 -87,25 -224,57 -409,96 -22,20 -54,31 -97,31 -36,0 -58,-36 -66,-106 0,-290 -29,-701 -88,-1233l-8 0c-109,182 -170,361 -185,534 -85,930 -95,1473 -31,1629l0 37c0,26 -58,42 -174,50 -354,-21 -532,-56 -532,-108l0 -38c32,-167 57,-380 76,-640 -47,-891 -92,-1336 -134,-1336l0 -19c-29,0 -52,209 -69,628 0,39 16,223 49,553 -7,58 -36,87 -87,87 -89,-25 -348,-61 -774,-107 -65,-23 -97,-55 -97,-96l0 -10c65,-157 113,-855 144,-2094l0 -134c0,-264 -23,-464 -68,-602 0,-45 22,-66 68,-66l29 0c26,20 120,58 280,115 0,16 52,28 156,38l29 0c26,0 140,-57 340,-173 12,-8 21,-12 28,-12 39,16 59,39 59,69 -19,145 -29,235 -29,271 0,99 33,216 97,350 65,214 142,443 231,687l20 0c175,-590 262,-968 262,-1133l0 -47c0,-36 -4,-82 -10,-137 18,-40 40,-60 69,-60l203 119c62,13 133,21 212,28 187,0 346,-71 475,-213 12,-6 26,-9 40,-9zm1135 -276l10 0 682 224c79,14 174,22 286,22l184 0c136,0 295,-41 480,-124 46,20 77,43 92,71l0 21c0,18 -52,165 -154,439 -6,13 -9,24 -9,32 96,-35 211,-66 346,-93 45,0 72,31 83,93 -157,370 -236,695 -236,977 76,762 148,1275 215,1542l0 9c0,43 -28,67 -83,73l-9 0c-115,-38 -303,-137 -562,-297 170,225 255,350 255,378l0 9c0,75 -108,113 -326,113l-18 -9c-15,0 -22,3 -22,9 -24,0 -41,-3 -52,-9 -300,-8 -535,-12 -703,-12l-428 0c-143,0 -215,-41 -215,-123 103,-203 153,-311 153,-325l-11 0c-33,14 -84,24 -151,30 -225,-17 -338,-47 -338,-92 0,-6 -3,-17 -9,-30 40,-48 61,-191 61,-428 40,-278 59,-482 59,-611 0,-254 -68,-659 -203,-1216l0 -62c10,-67 44,-101 102,-101 115,81 179,122 193,122 30,12 129,25 297,41 -28,-249 -45,-450 -51,-602 14,-48 42,-71 82,-71zm397 897c0,90 62,522 184,1296 27,283 40,443 40,479 8,0 18,-3 31,-9 89,6 161,9 215,9l111 0c14,0 21,-6 21,-18 -67,-212 -122,-651 -162,-1318 -7,-106 -10,-183 -10,-234 0,-11 3,-65 10,-163 -112,-28 -225,-42 -338,-42l-102 0zm2412 -817c289,36 623,54 1002,54l127 0c605,49 964,74 1077,74 294,9 454,34 480,75 13,1 21,9 21,21l0 319c13,173 21,269 21,288l0 21c0,99 -85,149 -255,149 -90,45 -210,153 -361,321 -471,633 -724,1070 -758,1310 -7,0 -17,25 -31,74l10 0c193,0 410,7 648,21 144,0 215,-32 215,-95 7,-132 10,-228 10,-287 0,-183 -14,-418 -43,-704 18,-71 54,-106 107,-106l682 127c29,30 42,58 42,85l0 33c0,145 -9,439 -30,883 0,15 3,92 9,234 0,227 -46,372 -139,437 -52,22 -109,33 -170,33l-21 0c-61,0 -268,-14 -619,-42l-73 0 -874 63 -1085 -21 -289 42c-50,0 -78,-39 -85,-118l0 -73c0,-126 -46,-339 -139,-640l0 -21c0,-71 99,-107 297,-107 124,0 357,-99 694,-297 269,-114 526,-293 768,-534 202,-209 369,-453 501,-734l-12 0c-369,71 -685,107 -947,107 -540,-22 -810,-76 -810,-161 -27,0 -48,-245 -64,-734 11,-64 43,-97 94,-97zm5400 14c68,0 101,31 101,92 0,16 -7,89 -20,218 37,138 71,647 101,1524 8,0 15,35 23,104l117 12c137,0 262,-91 377,-276 115,-129 176,-193 184,-193l57 0c16,0 30,22 45,68 -53,315 -81,597 -81,848l-9 0c0,7 4,11 9,11l-9 57 0 196c0,215 19,430 57,642l0 36c0,18 -27,34 -81,44 -132,-15 -239,-23 -321,-23l-68 0c-304,16 -468,23 -493,23l-25 0c-73,0 -119,-49 -137,-148l34 -218c-14,-104 -21,-214 -21,-332l-13 0c-112,12 -331,23 -653,33 -27,-7 -65,-10 -116,-10l0 10c8,257 12,436 12,540 0,54 -31,95 -92,125 -213,8 -388,12 -527,12l-104 0c-114,0 -183,-34 -205,-104 6,-140 9,-257 9,-353 0,-147 -41,-495 -125,-1044l0 -12c15,-35 29,-54 45,-59l47 0c155,159 323,285 505,380 13,-63 25,-174 34,-333 0,-364 -42,-883 -125,-1560l0 -69c0,-145 53,-218 160,-218 186,23 342,34 470,34l35 0c124,0 391,-19 803,-57zm-814 1171l56 767c96,38 162,58 196,58l10 -114 0 -160c-15,-358 -22,-545 -22,-562l-11 0c-79,-8 -140,-12 -185,-12l-23 0c-15,1 -21,9 -21,23z"/>
  <path class="fil11" d="M18932 4519c0,0 13,265 99,289 86,24 629,412 914,430 285,18 583,1 714,-14 132,-15 395,-44 581,-165 186,-121 462,-185 637,-255 176,-70 477,-203 592,-216 115,-13 206,-90 531,-160 325,-70 446,-183 734,-133 541,95 1094,361 1638,349 182,-4 511,-191 660,-341 150,-150 292,-216 438,-249 147,-33 360,-207 716,-147 357,60 815,291 987,338 172,48 318,164 307,66 -11,-99 -470,-630 -578,-701 -108,-71 -300,-149 -552,-321 -252,-171 -256,-204 -481,-278 -225,-75 -137,-35 -475,-80 -338,-45 -901,-15 -1008,63 -108,79 -9,68 -356,240 -347,172 -289,99 -617,286 -329,187 -268,280 -643,205 -375,-74 -290,-67 -601,-165 -311,-98 -220,-175 -594,-249 -375,-75 -146,-117 -492,-78 -345,39 -319,119 -551,278 -232,159 -246,178 -555,396 -308,217 -201,139 -489,238 -288,99 -497,172 -756,235 -259,62 -325,69 -456,84 -132,15 -344,55 -344,55z"/>
  <polygon class="fil12" points="23446,5169 23400,5326 23244,5339 23396,5366 23440,5531 23478,5369 23639,5349 23482,5326 "/>
  <polygon class="fil12" points="21738,393 21692,550 21536,563 21688,590 21732,755 21769,593 21931,573 21774,550 "/>
  <polygon class="fil12" points="16969,4600 16924,4757 16767,4771 16919,4797 16964,4962 17001,4800 17162,4780 17006,4757 "/>
  <polygon class="fil12" points="14971,864 14926,1021 14770,1035 14921,1061 14966,1226 15003,1065 15164,1044 15008,1021 "/>
  <polygon class="fil12" points="10357,4442 10312,4599 10155,4612 10307,4639 10351,4803 10389,4642 10550,4622 10394,4599 "/>
  <polygon class="fil12" points="28151,626 28106,783 27949,796 28101,823 28146,988 28183,826 28344,806 28188,783 "/>
  <polygon class="fil12" points="9417,397 9372,554 9216,567 9368,594 9412,759 9449,597 9610,577 9454,554 "/>
  <polygon class="fil12" points="4160,1054 4115,1211 3958,1224 4110,1251 4155,1416 4192,1254 4353,1234 4197,1211 "/>
  <polygon class="fil12" points="11944,2459 11899,2616 11742,2629 11894,2656 11939,2821 11976,2659 12137,2639 11981,2616 "/>
  <polygon class="fil12" points="19413,7674 19368,7831 19212,7844 19364,7871 19408,8036 19445,7874 19606,7854 19450,7831 "/>
  <polygon class="fil12" points="15037,5440 14992,5597 14835,5610 14987,5637 15032,5801 15069,5640 15230,5620 15074,5597 "/>
  <polygon class="fil12" points="19962,8563 19917,8720 19761,8733 19913,8760 19957,8925 19994,8763 20155,8743 19999,8720 "/>
  <polygon class="fil12" points="11234,5234 11188,5391 11032,5404 11184,5431 11228,5596 11266,5434 11427,5414 11270,5391 "/>
  <polygon class="fil12" points="21276,9791 21231,9948 21074,9961 21226,9988 21271,10152 21308,9991 21469,9971 21313,9948 "/>
  <polygon class="fil12" points="27993,6267 27947,6424 27791,6437 27943,6464 27987,6629 28024,6467 28186,6447 28029,6424 "/>
  <polygon class="fil12" points="16877,11325 16832,11482 16675,11496 16827,11522 16872,11687 16909,11526 17070,11505 16914,11482 "/>
  <polygon class="fil12" points="12781,6743 12736,6900 12580,6913 12732,6940 12776,7104 12813,6943 12974,6923 12818,6900 "/>
  <polygon class="fil12" points="17746,1798 17701,1955 17544,1968 17696,1995 17741,2160 17778,1998 17939,1978 17783,1955 "/>
  <polygon class="fil12" points="4115,5608 4069,5765 3913,5778 4065,5805 4109,5970 4146,5808 4308,5788 4151,5765 "/>
  <polygon class="fil12" points="27907,3249 27862,3406 27706,3419 27858,3446 27902,3610 27939,3449 28100,3429 27944,3406 "/>
  <polygon class="fil12" points="26992,10833 26947,10990 26791,11003 26943,11030 26987,11194 27024,11033 27185,11013 27029,10990 "/>
  <polygon class="fil12" points="25695,7609 25649,7766 25493,7779 25645,7806 25689,7971 25726,7809 25888,7789 25731,7766 "/>
  <polygon class="fil12" points="1075,1383 1030,1540 874,1553 1026,1580 1070,1745 1107,1583 1268,1563 1112,1540 "/>
  <polygon class="fil12" points="11643,9625 11598,9782 11441,9795 11593,9822 11638,9986 11675,9825 11836,9805 11680,9782 "/>
  <polygon class="fil12" points="1141,4815 1096,4972 940,4985 1091,5012 1136,5177 1173,5015 1334,4995 1178,4972 "/>
  <polygon class="fil12" points="2437,8695 2391,8852 2235,8865 2387,8892 2431,9057 2468,8895 2630,8875 2473,8852 "/>
  <polygon class="fil12" points="8375,11410 8330,11567 8173,11580 8325,11607 8370,11771 8407,11610 8568,11590 8412,11567 "/>
  <polygon class="fil12" points="5944,7020 5898,7177 5742,7191 5894,7217 5938,7382 5975,7221 6137,7200 5980,7177 "/>
  <path class="fil13" d="M16065 8382l20 0c58,0 86,47 86,143 212,405 319,794 319,1165 5,0 12,58 19,175 0,206 -89,402 -270,586 -68,40 -158,72 -269,97l0 9c96,57 144,147 144,269 -6,135 -9,228 -9,279l29 20c114,-56 182,-114 200,-173 31,-54 61,-89 89,-105l18 0c65,0 97,73 97,220 14,295 26,442 38,442 -3,20 -20,46 -49,78 -140,-14 -239,-20 -298,-20 -64,0 -230,4 -500,11 -352,0 -528,-106 -528,-318 11,-120 17,-197 17,-232 -10,-320 -42,-480 -95,-480l-57 0c-71,0 -106,96 -106,288 0,117 3,265 9,444 0,116 -93,193 -279,229l-192 0c-180,0 -270,-25 -270,-77 -10,0 -20,-22 -29,-66l58 -1492 0 -20c0,-528 -26,-925 -78,-1194 8,-44 37,-66 86,-66 158,57 351,86 578,86 79,0 185,7 318,20 140,0 377,-64 712,-192 60,-36 124,-78 192,-126zm-1019 895c58,301 89,493 95,577l232 78 38 0 0 -9c-58,-326 -93,-557 -107,-695 -157,21 -243,37 -258,49zm3099 -907c46,14 69,44 69,91 -66,183 -130,397 -190,641 0,297 41,671 121,1123 119,709 179,1126 179,1251 0,57 -130,94 -391,111l-491 -60 -170 0c-113,13 -176,20 -190,20l-20 0c-73,-7 -110,-34 -110,-79 0,-15 47,-86 141,-213 80,-144 120,-334 120,-570 11,0 22,-96 31,-289 -27,-587 -64,-959 -111,-1115 -38,-182 -119,-440 -241,-771l0 -20c0,-53 50,-80 150,-80l91 -9c373,46 587,69 641,69 119,-26 243,-60 371,-100zm2477 -247l19 0c11,0 21,11 31,31l0 9c-47,169 -70,281 -70,336 0,327 100,742 303,1245l0 31c-5,20 -28,37 -71,50 -512,-122 -798,-193 -860,-212 -28,-29 -42,-56 -42,-82l0 -132c0,-146 -37,-237 -111,-272 -53,-21 -83,-31 -90,-31 -49,0 -110,60 -184,181l0 71c45,156 220,311 526,466 297,71 527,189 690,356 55,115 82,257 82,425 0,268 -118,535 -356,800 -144,128 -296,192 -455,192 -168,0 -475,-68 -922,-204 -277,-119 -433,-189 -466,-212 -19,0 -31,-23 -40,-71 60,-126 90,-254 90,-384l0 -62c0,-112 -30,-196 -90,-252l0 -31c0,-47 23,-70 70,-70 118,0 308,-7 569,-20 39,13 59,40 59,81l0 9c-26,105 -40,173 -40,203l0 52c0,82 75,139 224,172l9 0c229,0 344,-64 344,-193 0,-135 -181,-324 -546,-568 -50,-69 -199,-160 -447,-274l-39 -50 0 -61c95,-190 141,-349 141,-474 0,-91 -57,-304 -172,-639 4,-55 32,-82 82,-82 215,89 421,132 616,132 507,0 848,-125 1024,-375 51,-61 92,-91 122,-91zm3127 456l18 0c37,20 55,50 55,90l-64 1114c-37,341 -55,570 -55,690 0,387 70,685 210,891l0 44c-17,31 -36,46 -55,46 -17,0 -57,-7 -117,-19 -82,23 -209,53 -383,90 -20,19 -50,29 -90,29 -34,0 -54,-33 -62,-100 0,-271 -27,-655 -82,-1153l-9 0c-101,170 -159,337 -172,499 -80,871 -89,1379 -29,1525l0 35c0,25 -54,40 -164,47 -331,-19 -497,-53 -497,-102l0 -35c29,-156 53,-355 71,-599 -45,-834 -86,-1251 -126,-1251l0 -18c-27,0 -48,196 -64,588 0,37 15,209 46,518 -7,54 -34,81 -82,81 -83,-23 -326,-56 -725,-99 -60,-22 -90,-52 -90,-91l0 -9c60,-147 105,-800 135,-1960l0 -126c0,-247 -22,-435 -64,-564 0,-41 21,-62 64,-62l26 0c25,19 113,55 263,108 0,15 49,27 146,36l26 0c25,0 132,-54 319,-162 11,-7 20,-11 26,-11 37,15 55,36 55,64 -17,136 -26,220 -26,254 0,93 30,203 91,328 60,200 132,415 216,643l18 0c164,-553 245,-907 245,-1061l0 -44c0,-34 -3,-77 -9,-128 17,-37 38,-56 64,-56l191 111c58,12 125,20 199,26 175,0 324,-66 444,-199 12,-5 24,-8 37,-8zm2275 -171c64,0 95,29 95,86 0,15 -7,83 -19,204 35,130 67,606 95,1428 7,0 14,32 22,97l108 11c128,0 246,-86 353,-259 108,-120 166,-181 173,-181l53 0c15,0 29,21 42,64 -50,295 -75,560 -75,794l-9 0c0,7 3,11 9,11l-9 53 0 184c0,201 18,402 53,601l0 33c0,18 -25,32 -75,42 -124,-15 -224,-22 -300,-22l-65 0c-284,15 -438,22 -461,22l-23 0c-69,0 -112,-46 -128,-139l31 -204c-13,-97 -20,-201 -20,-311l-11 0c-106,12 -310,21 -612,30 -25,-6 -61,-9 -109,-9l0 9c8,241 11,409 11,507 0,50 -28,89 -86,117 -199,7 -363,11 -493,11l-97 0c-108,0 -172,-32 -192,-97 5,-132 8,-242 8,-332 0,-137 -38,-463 -117,-977l0 -11c14,-32 27,-51 43,-55l43 0c145,149 303,267 473,356 12,-60 23,-163 31,-312 0,-341 -38,-827 -117,-1461l0 -64c0,-136 50,-204 151,-204 174,21 320,31 439,31l34 0c115,0 366,-17 751,-53zm-762 1097l53 718c90,35 151,53 183,53l9 -106 0 -150c-13,-335 -20,-510 -20,-526l-11 0c-74,-8 -131,-11 -172,-11l-22 0c-14,1 -20,9 -20,22z"/>
  <g style="clip-path:url(#id1)">
   <g id="_2128291839888">
    <path id="1" class="fil6" d="M14232 9060c76,-177 59,-248 129,-195 71,53 118,124 177,189 59,64 148,17 212,17 65,0 48,-41 248,0 200,42 242,154 324,71 83,-82 -47,-171 136,-171 183,0 218,89 218,153 0,65 106,106 130,48 23,-59 100,-242 118,0 17,241 112,554 165,271 53,-283 -18,-501 94,-448 112,53 136,76 177,118 41,41 165,70 165,70l35 -978 -1839 -136 -1144 77 655 914z"/>
    <path class="fil6" d="M17114 8965c40,26 51,47 59,62 11,20 16,30 75,30 103,0 103,-72 195,-185 93,-113 41,-267 225,-81 130,201 36,649 36,649 0,0 247,-342 353,-484 107,-141 354,-235 366,-542 12,-307 -814,-1167 -1214,-1038 -401,130 -1227,236 -1003,779 224,542 213,471 248,554 35,82 -118,165 189,212 306,47 471,44 471,44z"/>
    <path class="fil6" d="M18971 9245c24,65 -41,65 24,65 65,0 -24,136 106,-35 129,-171 130,-330 141,-183 12,147 -82,312 30,265 112,-47 218,-141 265,-206 47,-65 118,-159 200,-148 83,12 65,65 183,166 118,100 95,182 230,106 136,-77 47,-213 248,-77 200,136 76,206 206,142 130,-65 6,-71 147,-71 142,0 195,589 224,-189 30,-778 578,-914 -141,-1149 -719,-236 -1167,-289 -1598,-106 -430,182 -713,-95 -772,265 -59,359 -218,300 -41,684 177,383 383,412 466,442 82,29 82,29 82,29z"/>
    <path class="fil6" d="M14308 9431c0,0 30,354 30,513 0,159 -36,353 -36,548 0,194 0,312 -11,483 -12,171 -18,283 -18,283 0,0 24,53 77,89 53,35 100,70 76,-24 -23,-94 -29,-112 -29,-289 0,-177 -18,-188 0,-424 17,-236 6,-224 17,-395 12,-171 12,-289 12,-372 0,-82 10,-239 -47,-235 -57,4 18,-148 18,-148l-89 -29z"/>
    <path class="fil6" d="M15440 9785c30,94 201,200 47,229 -153,30 -235,-5 -277,-59 -41,-53 -12,77 6,107 18,29 142,82 189,59 47,-24 112,-48 165,-71 53,-24 35,-183 29,-212 -6,-30 -159,-53 -159,-53z"/>
    <path class="fil6" d="M15971 10625c20,8 65,41 73,67 9,27 3,30 15,101 12,70 12,73 12,162 0,88 -6,112 -6,144 0,33 -56,44 -62,-29 -6,-74 -29,-29 -6,-112 24,-83 50,-27 24,-139 -27,-112 -38,-106 -44,-150 -6,-44 -6,-44 -6,-44z"/>
    <path class="fil6" d="M17368 10377c17,165 17,189 17,189 0,0 18,-36 0,165 -17,200 -29,182 -118,377 -88,195 -135,265 -135,265l194 -29c0,0 42,17 77,-189 35,-206 35,-183 41,-218 6,-35 65,-165 65,-271 0,-106 12,-89 0,-130 -12,-41 -141,-159 -141,-159z"/>
    <path class="fil6" d="M18694 10383c0,0 77,171 77,218 0,47 11,65 0,200 -12,136 -6,171 -30,236 -23,65 71,100 71,100 0,0 53,-141 53,-229 0,-89 24,-219 12,-283 -12,-65 -112,-230 -112,-230l-71 -12z"/>
    <path class="fil6" d="M19549 10000c188,188 224,235 283,365 59,130 71,59 71,189 0,129 35,147 35,147 0,0 71,59 77,-65 5,-123 -30,-300 -71,-312 -41,-12 -83,-53 -83,-53 0,0 -65,-77 -65,-136 0,-59 59,-76 -59,-112 -117,-35 -188,-23 -188,-23z"/>
    <path class="fil6" d="M20633 10760c-100,206 54,324 -253,377 -307,53 -29,-70 6,-147 35,-77 53,29 106,-59 53,-88 141,-171 141,-171z"/>
    <path class="fil6" d="M21424 9316c98,123 24,154 104,135 80,-18 86,-30 78,-29 0,0 83,-153 201,-82 118,70 -24,-6 118,70 141,77 100,30 176,-6 77,-35 -82,-29 77,-35 159,-6 136,41 254,53 117,12 165,224 324,12 159,-212 135,0 135,0 0,0 83,-53 207,-6 123,47 53,24 194,71 142,47 95,82 165,23 71,-59 -17,-11 124,-76 142,-65 230,-106 336,-36 106,71 931,-6 566,-489 -366,-483 -30,-654 -625,-696 -595,-41 -1256,-41 -1468,-41 -212,0 -748,-88 -966,-12 -219,77 -549,-188 -360,201 189,389 153,330 189,595 35,266 171,348 171,348z"/>
    <path class="fil6" d="M24731 9010c188,-154 247,-71 247,-12 0,59 177,106 177,106 0,0 59,-177 212,-177 153,0 118,-200 248,47 129,248 0,319 247,260 248,-59 48,129 319,-71 271,-200 401,-424 188,-755 -212,-330 413,-330 -766,-424 -1179,-94 -1368,-542 -1450,-47 -83,495 130,967 224,990 94,24 354,83 354,83z"/>
    <path class="fil6" d="M24353 11379c0,124 89,207 177,166 89,-42 -177,-166 -177,-166z"/>
    <path class="fil6" d="M24837 9375c0,0 0,460 0,578 0,118 94,401 0,589 -95,189 -154,165 -201,260 -47,94 342,-153 342,-153 0,0 59,-272 24,-425 -36,-153 23,-242 -71,-401 -94,-159 24,-401 24,-401l-118 -47z"/>
    <path class="fil6" d="M25933 11138c0,0 47,53 35,159 -11,106 -23,6 -23,118 0,112 41,118 94,112 53,-6 53,-6 53,-6 0,0 30,-18 71,-18 41,0 71,-94 71,-94 0,0 -47,-24 -83,-18 -35,6 -88,12 -88,12 0,0 17,-118 -6,-159 -24,-41 -124,-106 -124,-106z"/>
    <path class="fil6" d="M25603 9941c0,118 24,236 -12,307 -35,70 165,35 165,35l-153 -342z"/>
    <path class="fil6" d="M23280 10743c44,175 71,384 71,566 0,278 283,59 283,59l-106 -166 -248 -459z"/>
    <path class="fil6" d="M22803 9581c0,0 -30,183 -71,224 -41,42 18,83 18,83l106 -248 -53 -59z"/>
    <path class="fil6" d="M22373 9670c-24,35 -53,65 -53,65l76 82 -23 -147z"/>
    <path class="fil6" d="M22443 11587c0,0 24,-7 0,170 -23,176 -47,224 -47,294 0,60 55,181 83,236 27,55 165,-342 129,-412 -35,-71 0,-288 0,-288 0,0 -155,20 -165,0z"/>
    <path class="fil6" d="M21435 9676c18,76 36,212 36,259 0,47 6,201 11,324 6,124 18,189 18,395 0,207 -18,283 -18,360 0,76 18,100 0,165 -17,65 -23,77 -23,77 0,0 -147,64 -100,141 47,77 123,29 123,29 0,0 18,-53 54,-135 35,-83 82,-112 82,-301 0,-188 0,-177 0,-230 0,-53 -41,-512 -59,-560 -18,-47 -29,-518 -29,-518l-95 -6z"/>
   </g>
  </g>
  <path class="fil10" d="M16065 8382l20 0c58,0 86,47 86,143 212,405 319,794 319,1165 5,0 12,58 19,175 0,206 -89,402 -270,586 -68,40 -158,72 -269,97l0 9c96,57 144,147 144,269 -6,135 -9,228 -9,279l29 20c114,-56 182,-114 200,-173 31,-54 61,-89 89,-105l18 0c65,0 97,73 97,220 14,295 26,442 38,442 -3,20 -20,46 -49,78 -140,-14 -239,-20 -298,-20 -64,0 -230,4 -500,11 -352,0 -528,-106 -528,-318 11,-120 17,-197 17,-232 -10,-320 -42,-480 -95,-480l-57 0c-71,0 -106,96 -106,288 0,117 3,265 9,444 0,116 -93,193 -279,229l-192 0c-180,0 -270,-25 -270,-77 -10,0 -20,-22 -29,-66l58 -1492 0 -20c0,-528 -26,-925 -78,-1194 8,-44 37,-66 86,-66 158,57 351,86 578,86 79,0 185,7 318,20 140,0 377,-64 712,-192 60,-36 124,-78 192,-126zm-1019 895c58,301 89,493 95,577l232 78 38 0 0 -9c-58,-326 -93,-557 -107,-695 -157,21 -243,37 -258,49zm3099 -907c46,14 69,44 69,91 -66,183 -130,397 -190,641 0,297 41,671 121,1123 119,709 179,1126 179,1251 0,57 -130,94 -391,111l-491 -60 -170 0c-113,13 -176,20 -190,20l-20 0c-73,-7 -110,-34 -110,-79 0,-15 47,-86 141,-213 80,-144 120,-334 120,-570 11,0 22,-96 31,-289 -27,-587 -64,-959 -111,-1115 -38,-182 -119,-440 -241,-771l0 -20c0,-53 50,-80 150,-80l91 -9c373,46 587,69 641,69 119,-26 243,-60 371,-100zm2477 -247l19 0c11,0 21,11 31,31l0 9c-47,169 -70,281 -70,336 0,327 100,742 303,1245l0 31c-5,20 -28,37 -71,50 -512,-122 -798,-193 -860,-212 -28,-29 -42,-56 -42,-82l0 -132c0,-146 -37,-237 -111,-272 -53,-21 -83,-31 -90,-31 -49,0 -110,60 -184,181l0 71c45,156 220,311 526,466 297,71 527,189 690,356 55,115 82,257 82,425 0,268 -118,535 -356,800 -144,128 -296,192 -455,192 -168,0 -475,-68 -922,-204 -277,-119 -433,-189 -466,-212 -19,0 -31,-23 -40,-71 60,-126 90,-254 90,-384l0 -62c0,-112 -30,-196 -90,-252l0 -31c0,-47 23,-70 70,-70 118,0 308,-7 569,-20 39,13 59,40 59,81l0 9c-26,105 -40,173 -40,203l0 52c0,82 75,139 224,172l9 0c229,0 344,-64 344,-193 0,-135 -181,-324 -546,-568 -50,-69 -199,-160 -447,-274l-39 -50 0 -61c95,-190 141,-349 141,-474 0,-91 -57,-304 -172,-639 4,-55 32,-82 82,-82 215,89 421,132 616,132 507,0 848,-125 1024,-375 51,-61 92,-91 122,-91zm3127 456l18 0c37,20 55,50 55,90l-64 1114c-37,341 -55,570 -55,690 0,387 70,685 210,891l0 44c-17,31 -36,46 -55,46 -17,0 -57,-7 -117,-19 -82,23 -209,53 -383,90 -20,19 -50,29 -90,29 -34,0 -54,-33 -62,-100 0,-271 -27,-655 -82,-1153l-9 0c-101,170 -159,337 -172,499 -80,871 -89,1379 -29,1525l0 35c0,25 -54,40 -164,47 -331,-19 -497,-53 -497,-102l0 -35c29,-156 53,-355 71,-599 -45,-834 -86,-1251 -126,-1251l0 -18c-27,0 -48,196 -64,588 0,37 15,209 46,518 -7,54 -34,81 -82,81 -83,-23 -326,-56 -725,-99 -60,-22 -90,-52 -90,-91l0 -9c60,-147 105,-800 135,-1960l0 -126c0,-247 -22,-435 -64,-564 0,-41 21,-62 64,-62l26 0c25,19 113,55 263,108 0,15 49,27 146,36l26 0c25,0 132,-54 319,-162 11,-7 20,-11 26,-11 37,15 55,36 55,64 -17,136 -26,220 -26,254 0,93 30,203 91,328 60,200 132,415 216,643l18 0c164,-553 245,-907 245,-1061l0 -44c0,-34 -3,-77 -9,-128 17,-37 38,-56 64,-56l191 111c58,12 125,20 199,26 175,0 324,-66 444,-199 12,-5 24,-8 37,-8zm2275 -171c64,0 95,29 95,86 0,15 -7,83 -19,204 35,130 67,606 95,1428 7,0 14,32 22,97l108 11c128,0 246,-86 353,-259 108,-120 166,-181 173,-181l53 0c15,0 29,21 42,64 -50,295 -75,560 -75,794l-9 0c0,7 3,11 9,11l-9 53 0 184c0,201 18,402 53,601l0 33c0,18 -25,32 -75,42 -124,-15 -224,-22 -300,-22l-65 0c-284,15 -438,22 -461,22l-23 0c-69,0 -112,-46 -128,-139l31 -204c-13,-97 -20,-201 -20,-311l-11 0c-106,12 -310,21 -612,30 -25,-6 -61,-9 -109,-9l0 9c8,241 11,409 11,507 0,50 -28,89 -86,117 -199,7 -363,11 -493,11l-97 0c-108,0 -172,-32 -192,-97 5,-132 8,-242 8,-332 0,-137 -38,-463 -117,-977l0 -11c14,-32 27,-51 43,-55l43 0c145,149 303,267 473,356 12,-60 23,-163 31,-312 0,-341 -38,-827 -117,-1461l0 -64c0,-136 50,-204 151,-204 174,21 320,31 439,31l34 0c115,0 366,-17 751,-53zm-762 1097l53 718c90,35 151,53 183,53l9 -106 0 -150c-13,-335 -20,-510 -20,-526l-11 0c-74,-8 -131,-11 -172,-11l-22 0c-14,1 -20,9 -20,22z"/>
 </g>
</svg>
